<?xml version="1.0" encoding="UTF-8"?>
<svg id="Layer_1" data-name="Layer 1" xmlns="http://www.w3.org/2000/svg" viewBox="0 0 2000 1000">
  <defs>
    <style>
      .cls-1 {
        fill: #fff;
        stroke-width: 0px;
      }
    </style>
  </defs>
  <path class="cls-1" d="m714,493.21c7.4-6.38,11.11-15.15,11.11-26.32,0-10.25-3.65-18.54-10.94-24.87-3.07-2.66-6.66-4.75-10.76-6.3,1.12,3.42,1.69,7.14,1.69,11.16,0,11.17-3.7,19.94-11.11,26.32-7.41,6.38-18.69,9.57-33.84,9.57h-32.29v20h52.29c15.15,0,26.43-3.19,33.84-9.57Z"/>
  <polygon class="cls-1" points="278.38 399.05 308.8 399.05 302.81 379.05 258.38 379.05 330.33 612.32 344.16 612.32 278.38 399.05"/>
  <polygon class="cls-1" points="785.09 399.05 934.28 399.05 934.28 379.05 765.09 379.05 765.09 415.11 785.09 415.11 785.09 399.05"/>
  <polygon class="cls-1" points="376.3 577.81 430.99 399.05 439.77 399.05 446.02 379.05 410.99 379.05 363.39 534.65 376.3 577.81"/>
  <polygon class="cls-1" points="1592.42 399.05 1741.61 399.05 1741.61 379.05 1572.42 379.05 1572.42 415.11 1592.42 415.11 1592.42 399.05"/>
  <path class="cls-1" d="m1521.32,493.21c7.4-6.38,11.11-15.15,11.11-26.32,0-10.25-3.65-18.54-10.94-24.87-3.07-2.66-6.66-4.75-10.76-6.3,1.12,3.42,1.69,7.14,1.69,11.16,0,11.17-3.7,19.94-11.11,26.32-7.41,6.38-18.69,9.57-33.84,9.57h-32.29v20h52.29c15.15,0,26.43-3.19,33.84-9.57Z"/>
  <polygon class="cls-1" points="492.51 399.05 514.55 399.05 514.55 379.05 472.51 379.05 472.51 612.32 492.51 612.32 492.51 399.05"/>
  <polygon class="cls-1" points="1256.26 439.04 1249.53 459.64 1270.27 523.12 1228.79 523.12 1222.25 543.12 1290.27 543.12 1256.26 439.04"/>
  <path class="cls-1" d="m1033.49,589.34c8.6,6.44,18.6,9.66,29.99,9.66,13.1,0,23.58-3.44,31.45-10.34,7.86-6.89,11.79-20.14,11.79-39.73v-149.88h13.33v-20h-33.33v149.88c0,19.6-3.93,32.84-11.79,39.73-7.86,6.89-18.34,10.34-31.45,10.34-6.97,0-13.41-1.21-19.33-3.62,2.14,6.24,5.25,10.9,9.34,13.96Z"/>
  <polygon class="cls-1" points="1301.55 576.78 1288.25 576.78 1300.17 612.32 1313.47 612.32 1301.55 576.78"/>
  <path class="cls-1" d="m585.82,399.05h101.17c21.95,0,39.33,3.88,52.2,11.61-2.79-4.52-6.17-8.71-10.16-12.55-13.22-12.7-33.9-19.06-62.04-19.06h-101.17v233.28h20v-213.28Z"/>
  <polygon class="cls-1" points="1494.32 536.45 1481.88 536.45 1510.55 612.32 1522.99 612.32 1494.32 536.45"/>
  <rect class="cls-1" x="1634.45" y="435.11" width="20" height="177.22"/>
  <polygon class="cls-1" points="1235.07 399.05 1273.56 399.05 1266.85 379.05 1215.07 379.05 1137.65 612.32 1164.29 612.32 1235.07 399.05"/>
  <path class="cls-1" d="m1393.15,399.05h101.17c21.95,0,39.33,3.88,52.2,11.61-2.79-4.52-6.17-8.71-10.16-12.55-13.22-12.7-33.9-19.06-62.04-19.06h-101.17v233.28h20v-213.28Z"/>
  <polygon class="cls-1" points="687 536.45 674.55 536.45 703.23 612.32 715.67 612.32 687 536.45"/>
  <rect class="cls-1" x="827.13" y="435.11" width="20" height="177.22"/>
  <path class="cls-1" d="m985.73,597.55c-5.36-11.9-8.03-27.09-8.03-45.54v-152.95h22.9v-20h-42.9v152.95c0,18.46,2.68,33.64,8.03,45.54,4.88,10.86,12.65,19.61,23.27,26.25-1.2-2-2.3-4.08-3.27-6.25Z"/>
</svg>